<svg xmlns="http://www.w3.org/2000/svg" xmlns:xlink="http://www.w3.org/1999/xlink" viewBox="0 0 373 305"><style><![CDATA[.AD{fill:#fff}.AE{stroke-linecap:round}.AF{stroke-linejoin:round}.AG{stroke-miterlimit:10}.AH{fill:none}.AI{opacity:.56}.AJ{fill:#072945}.AK{fill:#89e1ff}.AL{stroke:#354e6e}.AM{stroke-width:.971}.AN{fill:#b9d1f6}.AO{fill:#d41f26}.AP{fill:#69d6f4}.AQ{opacity:.54}.AR{stroke:#051d2b}.AS{fill:#051d2b}.AT{fill:#8ba3c6}.AU{fill:#acc4e5}.AV{stroke-width:.522}]]></style><linearGradient id="A" gradientUnits="userSpaceOnUse" x1="87.338" y1="169.38" x2="426.224" y2="-118.076"><stop offset="0" stop-color="#b9d1f6" stop-opacity="0"/><stop offset=".144" stop-color="#b9d1f6" stop-opacity=".144"/><stop offset="1" stop-color="#b9d1f6"/></linearGradient><circle cx="160.2" cy="107.5" r="101.6" fill="url(#A)"/><linearGradient id="B" gradientUnits="userSpaceOnUse" x1="24.656" y1="138.213" x2="140.947" y2="39.571"><stop offset="0" stop-color="#b9d1f6" stop-opacity="0"/><stop offset=".144" stop-color="#b9d1f6" stop-opacity=".144"/><stop offset="1" stop-color="#b9d1f6"/></linearGradient><circle cx="49.7" cy="117" r="34.9" fill="url(#B)"/><linearGradient id="C" gradientUnits="userSpaceOnUse" x1="292.668" y1="58.7" x2="358.347" y2="15.577"><stop offset="0" stop-color="#b9d1f6" stop-opacity="0"/><stop offset=".144" stop-color="#b9d1f6" stop-opacity=".144"/><stop offset="1" stop-color="#b9d1f6"/></linearGradient><circle cx="301.9" cy="52.6" r="11" fill="url(#C)"/><linearGradient id="D" gradientUnits="userSpaceOnUse" x1="381.593" y1="242.058" x2="-323.847" y2="388.896"><stop offset="0" stop-color="#fff"/><stop offset=".01" stop-color="#fdfdff"/><stop offset=".132" stop-color="#e4edfc"/><stop offset=".268" stop-color="#d1e1f9"/><stop offset=".426" stop-color="#c3d8f7"/><stop offset=".626" stop-color="#bbd3f6"/><stop offset=".997" stop-color="#b9d1f6"/></linearGradient><path d="M358.2 277.8c-7.8 8.3-18.4 12.3-29.6 12.4-7.4.1-14.8-1-22.2-.8-19.2.6-37.1 9.7-56.3 9.6-20.8-.1-41.3-4.2-61.8-7.3-27.1-4.1-54.5-5.8-81.8-6.4-26.4-.5-52.9.9-78.4-7.3-.3-.1-.7-.2-1-.3h331.1" fill="url(#D)"/><path d="M49.2 201.9c.9-.1 1.8.3 2.5 1.4 1.2 1.9 1.6 4.6 3.6 5.7 1.2.7 2.7.5 4.1.7.5 0 1.1.1 1.6.5.6.5.7 1.3.7 2-.1 5.1 1.1 7.3 5.8 9.2 4.5 1.8 3.6 4.9 1.5 8.7-7 13 6.2 7.4 1.8 17.9s1.3 23.1-5.3 17.9c0 0-5.8-12.7-11.8-16.6s3.6-8.6 1.7-13.9c-2.7-7.7-9.3-7.4-4.5-15.8 1.9-3.3.7-6.6-1.1-9.7-1-1.6-2.8-3.5-2.7-5.5.1-1.5 1.1-2.4 2.1-2.5z" fill="#a7c3ea"/><defs><path id="E" d="M49.2 201.9c.9-.1 1.8.3 2.5 1.4 1.2 1.9 1.6 4.6 3.6 5.7 1.2.7 2.7.5 4.1.7.5 0 1.1.1 1.6.5.6.5.7 1.3.7 2-.1 5.1 1.1 7.3 5.8 9.2 4.5 1.8 3.6 4.9 1.5 8.7-7 13 6.2 7.4 1.8 17.9s1.3 23.1-5.3 17.9c0 0-5.8-12.7-11.8-16.6s3.6-8.6 1.7-13.9c-2.7-7.7-9.3-7.4-4.5-15.8 1.9-3.3.7-6.6-1.1-9.7-1-1.6-2.8-3.5-2.7-5.5.1-1.5 1.1-2.4 2.1-2.5z"/><path id="F" d="M120.9 42.2s9.2 88.6 55.7 92.1 14.7 110.1 50.9 132.9S109 289 109 289l11.9-246.8z"/><path id="G" d="M98.2 59.6s7.8 35.9 77.7 53 14.7 45.7 67.8 66.5S90.3 288 90.3 288l-20-161.9 27.9-66.5z"/><path id="H" d="M205.9 129h-18.5c-4.7 0-8.5-3.8-8.5-8.5h0c0-4.7 3.8-8.5 8.5-8.5h18.5c4.7 0 8.5 3.8 8.5 8.5h0c0 4.7-3.8 8.5-8.5 8.5z"/><path id="I" d="M215.3 101.5h-36.9a5.59 5.59 0 0 1-5.6-5.6v-6.7a5.59 5.59 0 0 1 5.6-5.6h36.9a5.59 5.59 0 0 1 5.6 5.6v6.7c-.1 3.1-2.6 5.6-5.6 5.6z"/><path id="J" d="M116 77.3s3.4 18.3 38.7 28.1 6.8 23.4 33.4 34.8-74.6-1.6-74.6-1.6l-12.8-28.1L116 77.3z"/><path id="K" d="M98.2 172.7s7.8 35.9 77.7 53 14.7 45.7 67.8 66.5C296.9 313 90.3 401.1 90.3 401.1l-20-161.9 27.9-66.5z"/><path id="L" d="M116 190.4s3.4 18.3 38.7 28.1c35.3 9.9 6.8 23.4 33.4 34.8s-74.6-1.6-74.6-1.6l-12.8-28.1 15.3-33.2z"/><path id="M" d="M154.2 196.7s26 7.5 66.1-36.6 35.1 6.2 70.5-24.5 5 150.6 5 150.6l-111.1-44.9-30.5-44.6z"/><path id="N" d="M70.1 60s7.2 25 43.7 26 11.5 31 40 37.5-74.6 6.3-74.6 6.3l-17-16.4L70.1 60z"/></defs><clipPath id="O"><use xlink:href="#E"/></clipPath><linearGradient id="P" gradientUnits="userSpaceOnUse" x1="52.257" y1="240.96" x2="76.859" y2="240.96"><stop offset="0" stop-color="#fff"/><stop offset=".997" stop-color="#b9d1f6"/></linearGradient><path d="M54.4 200.5c.9-.1 1.8.4 2.5 1.7 1.2 2.4 1.6 5.7 3.6 7.1 1.2.9 2.7.7 4.1.8.5.1 1.1.2 1.6.6.6.6.7 1.6.7 2.5-.1 6.4 1.1 9.1 5.8 11.4 4.5 2.2 3.6 6.1 1.5 10.9-7 16.2 6.2 9.2 1.8 22.2-4.4 13.1 1.3 28.7-5.3 22.3 0 0-5.8-15.8-11.8-20.7s3.6-10.7 1.7-17.3c-2.7-9.6-9.3-9.3-4.5-19.6 1.9-4.1.7-8.3-1.1-12-1-2-2.8-4.3-2.7-6.8.1-1.9 1-3 2.1-3.1z" opacity=".23" clip-path="url(#O)" fill="url(#P)"/><path d="M77.1 212.3c-3-1-2.4 4.7-3.6 9-1.3 4.2-14 1.9-8.6 12.5 5.3 10.6-6.8 3.6-3.1 12.8 3.6 9.3.3 19.2 4.2 16.7s2.2-14.2 6.3-15.6 4.8-3 .7-6.8c-4-3.8 10.6-7.5 7-15.1-3.7-7.7.5-12.4-2.9-13.5z" class="AT"/><defs><path id="Q" d="M77.1 212.3c-3-1-2.4 4.7-3.6 9-1.3 4.2-14 1.9-8.6 12.5 5.3 10.6-6.8 3.6-3.1 12.8 3.6 9.3.3 19.2 4.2 16.7s2.2-14.2 6.3-15.6 4.8-3 .7-6.8c-4-3.8 10.6-7.5 7-15.1-3.7-7.7.5-12.4-2.9-13.5z"/></defs><clipPath id="R"><use xlink:href="#Q"/></clipPath><linearGradient id="S" gradientUnits="userSpaceOnUse" x1="64.089" y1="247.321" x2="83.582" y2="247.321"><stop offset="0" stop-color="#fff"/><stop offset=".997" stop-color="#b9d1f6"/></linearGradient><path d="M80.2 212c-3-1.4-2.4 6.5-3.6 12.4-1.3 5.9-14 2.6-8.6 17.2 5.3 14.7-6.8 4.9-3.1 17.7 3.6 12.8.3 26.5 4.2 23s2.2-19.6 6.3-21.5 4.8-4.1.7-9.4c-4-5.2 10.6-10.4 7-20.9-3.7-10.5.5-16.9-2.9-18.5z" opacity=".23" clip-path="url(#R)" fill="url(#S)"/><path d="M71.5 278.7H58.2a3.33 3.33 0 0 1-3.3-3.3v-19.1h19.8v19.1c0 1.9-1.4 3.3-3.2 3.3z" fill="#354e6e"/><defs><path id="T" d="M71.5 278.7H58.2a3.33 3.33 0 0 1-3.3-3.3v-19.1h19.8v19.1c0 1.9-1.4 3.3-3.2 3.3z"/></defs><clipPath id="U"><use xlink:href="#T"/></clipPath><path d="M73.2 252.7s-4.6 1.8-4.4 14.9-7.1 12.9-12.4 13.5-7.8-16.4-7.8-17 6.2-12.7 6.3-12.8c.2-.2 18.3 1.4 18.3 1.4z" clip-path="url(#U)" fill="#5f7799"/><path d="M165.2 97.2h-29c-1.6 0-2.9-1.3-2.9-2.9V64.2c0-1.6 1.3-2.9 2.9-2.9h29c1.6 0 2.9 1.3 2.9 2.9v30.1c0 1.6-1.3 2.9-2.9 2.9z" class="AN"/><defs><path id="V" d="M165.2 97.2h-29c-1.6 0-2.9-1.3-2.9-2.9V64.2c0-1.6 1.3-2.9 2.9-2.9h29c1.6 0 2.9 1.3 2.9 2.9v30.1c0 1.6-1.3 2.9-2.9 2.9z"/></defs><clipPath id="W"><use xlink:href="#V"/></clipPath><linearGradient id="X" gradientUnits="userSpaceOnUse" x1="166.056" y1="58.691" x2="130.58" y2="104.602"><stop offset="0" stop-color="#fff"/><stop offset=".997" stop-color="#b9d1f6"/></linearGradient><path d="M126.8 61.6s3.8 13.3 23.3 13.9 6.1 16.6 21.3 20-49.6 3.3-49.6 3.3l5-37.2z" opacity=".6" clip-path="url(#W)" fill="url(#X)"/><path d="M157.8 89.7h-14.2a3.33 3.33 0 0 1-3.3-3.3V76h20.9v10.4c0 1.8-1.5 3.3-3.4 3.3z" class="AD"/><circle cx="150.7" cy="82.3" r="2.6" class="AN"/><path d="M161 77.8h-20.6a2.22 2.22 0 0 1-2.2-2.2h0a2.22 2.22 0 0 1 2.2-2.2H161a2.22 2.22 0 0 1 2.2 2.2h0a2.22 2.22 0 0 1-2.2 2.2z" fill="#354e6e"/><path d="M150.7 75.3l8.7-9.7" stroke-width="2.047" class="AE AF AG AH AR"/><path d="M213.7 277.2h-69.4c-10.9 0-19.8-8.9-19.8-19.8V72.5c0-10.9 8.9-19.8 19.8-19.8h69.4c10.9 0 19.8 8.9 19.8 19.8v184.9c.1 10.9-8.8 19.8-19.8 19.8z" class="AJ"/><defs><path id="Y" d="M213.7 277.2h-69.4c-10.9 0-19.8-8.9-19.8-19.8V72.5c0-10.9 8.9-19.8 19.8-19.8h69.4c10.9 0 19.8 8.9 19.8 19.8v184.9c.1 10.9-8.8 19.8-19.8 19.8z"/></defs><clipPath id="Z"><use xlink:href="#Y"/></clipPath><use xlink:href="#F" clip-path="url(#Z)" class="AS"/><path d="M210.8 272.6h-64.7c-9.4 0-17.1-7.7-17.1-17.1V74.8c0-9.4 7.7-17.1 17.1-17.1h64.7c9.4 0 17.1 7.7 17.1 17.1v180.7c0 9.5-7.7 17.1-17.1 17.1z" class="AD"/><defs><path id="a" d="M210.8 272.6h-64.7c-9.4 0-17.1-7.7-17.1-17.1V74.8c0-9.4 7.7-17.1 17.1-17.1h64.7c9.4 0 17.1 7.7 17.1 17.1v180.7c0 9.5-7.7 17.1-17.1 17.1z"/></defs><clipPath id="b"><use xlink:href="#a"/></clipPath><linearGradient id="c" gradientUnits="userSpaceOnUse" x1="191.046" y1="134.837" x2="133.047" y2="217.283"><stop offset="0" stop-color="#fff"/><stop offset=".361" stop-color="#e6effc"/><stop offset=".997" stop-color="#b9d1f6"/></linearGradient><path d="M120.9 42.2s9.2 85.8 55.7 89.2 14.7 106.6 50.9 128.7S109 281.2 109 281.2l11.9-239z" opacity=".25" clip-path="url(#b)" fill="url(#c)"/><defs><path id="d" d="M210.8 272.6h-64.7c-9.4 0-17.1-7.7-17.1-17.1V74.8c0-9.4 7.7-17.1 17.1-17.1h64.7c9.4 0 17.1 7.7 17.1 17.1v180.7c0 9.5-7.7 17.1-17.1 17.1z"/></defs><clipPath id="e"><use xlink:href="#d"/></clipPath><g clip-path="url(#e)"><path d="M175.2 77.8h-34.3c-1.6 0-2.8-1.3-2.8-2.8v-3.9c0-1.6 1.3-2.8 2.8-2.8h34.3c1.6 0 2.8 1.3 2.8 2.8V75c0 1.6-1.3 2.8-2.8 2.8z" class="AO"/><g stroke="#435067" stroke-width=".534" class="AD AE AF AG"><path d="M211.9 70.3h5.8m-5.8 1.8h5.8m-5.8 1.8h5.8"/></g><path d="M173.9 189.5h-32.4a6.02 6.02 0 0 1-6-6v-36.9a6.02 6.02 0 0 1 6-6h32.4a6.02 6.02 0 0 1 6 6v36.9a6.02 6.02 0 0 1-6 6z" class="AK"/><path d="M215.4 189.5h-22.6c-3 0-5.4-2.4-5.4-5.4V146c0-3 2.4-5.4 5.4-5.4h22.6c3 0 5.4 2.4 5.4 5.4v38.1c0 2.9-2.4 5.4-5.4 5.4z" class="AN"/><defs><path id="f" d="M173.9 189.5h-32.4a6.02 6.02 0 0 1-6-6v-36.9a6.02 6.02 0 0 1 6-6h32.4a6.02 6.02 0 0 1 6 6v36.9a6.02 6.02 0 0 1-6 6z"/></defs><clipPath id="g"><use xlink:href="#f"/></clipPath><path d="M127.7 129.4s2.4 19.4 22.3 25.3c23.7 7 10.1 16.3 27 27.1 34.9 22.4-55.1 9.8-55.1 9.8l5.8-62.2z" clip-path="url(#g)" class="AP"/><path d="M220.8 110.9v20.2c0 2.4-2 4.4-4.4 4.4h-76.5c-2.4 0-4.4-2-4.4-4.4v-5.7c0-2.4 2-4.4 4.4-4.4h28.5c2.4 0 4.4-2 4.4-4.4v-5.7c0-2.4 2-4.4 4.4-4.4h39.3c2.4 0 4.3 2 4.3 4.4z" class="AD"/><defs><path id="h" d="M220.8 110.9v20.2c0 2.4-2 4.4-4.4 4.4h-76.5c-2.4 0-4.4-2-4.4-4.4v-5.7c0-2.4 2-4.4 4.4-4.4h28.5c2.4 0 4.4-2 4.4-4.4v-5.7c0-2.4 2-4.4 4.4-4.4h39.3c2.4 0 4.3 2 4.3 4.4z"/></defs><clipPath id="i"><use xlink:href="#h"/></clipPath><linearGradient id="j" gradientUnits="userSpaceOnUse" x1="224.421" y1="103.606" x2="152.245" y2="145.034"><stop offset="0" stop-color="#fff"/><stop offset=".997" stop-color="#b9d1f6"/></linearGradient><use xlink:href="#G" clip-path="url(#i)" fill="url(#j)" class="AI"/><use xlink:href="#H" class="AK"/><defs><path id="k" d="M205.9 129h-18.5c-4.7 0-8.5-3.8-8.5-8.5h0c0-4.7 3.8-8.5 8.5-8.5h18.5c4.7 0 8.5 3.8 8.5 8.5h0c0 4.7-3.8 8.5-8.5 8.5z"/></defs><clipPath id="l"><use xlink:href="#k"/></clipPath><use xlink:href="#G" clip-path="url(#l)" class="AP"/><g class="AE AF AG AH AL AM"><path d="M143.8 146.9h27.8m-27.8 4.6h23m-23 9.3h10.6m-10.6-4.6h27.8"/></g><defs><path id="m" d="M215.4 189.5h-22.6c-3 0-5.4-2.4-5.4-5.4V146c0-3 2.4-5.4 5.4-5.4h22.6c3 0 5.4 2.4 5.4 5.4v38.1c0 2.9-2.4 5.4-5.4 5.4z"/></defs><clipPath id="n"><use xlink:href="#m"/></clipPath><use xlink:href="#G" clip-path="url(#n)" class="AU"/><g class="AE AF AG AH AL AM"><path d="M190.3 147.3H218m-27.7 4.6h20.1m-20.1 9.3h6.9m-6.9-4.6H218m-27.7 10.2H218m-27.7 4.7h20.1m-20.1 9.3h6.9m-6.9-4.7H218m-74.2-7h27.8m-27.8 4.7h27.8m-27.8 9.3H168m-24.2-4.6h27.8"/></g><use xlink:href="#I" class="AD"/><defs><path id="o" d="M215.3 101.5h-36.9a5.59 5.59 0 0 1-5.6-5.6v-6.7a5.59 5.59 0 0 1 5.6-5.6h36.9a5.59 5.59 0 0 1 5.6 5.6v6.7c-.1 3.1-2.6 5.6-5.6 5.6z"/></defs><clipPath id="p"><use xlink:href="#o"/></clipPath><linearGradient id="q" gradientUnits="userSpaceOnUse" x1="150.776" y1="97.207" x2="224.198" y2="97.207"><stop offset="0" stop-color="#fff"/><stop offset=".997" stop-color="#b9d1f6"/></linearGradient><path d="M150.8 73.6s10.6 16.4 31.1 13.1c24.4-3.9 16.7 7.6 36.1 12.7 28.7 7.6-50.8 21.5-50.8 21.5l-16.4-47.3z" clip-path="url(#p)" fill="url(#q)" class="AI"/><g class="AE AF AG AH AL AM"><path d="M184.4 87.8h30.5M178.7 91h36.2m-36.2 3.1h36.2m-36.2 3.2h18.5"/></g><path d="M160.9 114.7h-19.7c-3.1 0-5.7-2.5-5.7-5.7V89.3c0-3.1 2.5-5.7 5.7-5.7h19.7c3.1 0 5.7 2.5 5.7 5.7V109c0 3.2-2.6 5.7-5.7 5.7z" class="AN"/><defs><path id="r" d="M160.9 114.7h-19.7c-3.1 0-5.7-2.5-5.7-5.7V89.3c0-3.1 2.5-5.7 5.7-5.7h19.7c3.1 0 5.7 2.5 5.7 5.7V109c0 3.2-2.6 5.7-5.7 5.7z"/></defs><clipPath id="s"><use xlink:href="#r"/></clipPath><use xlink:href="#J" clip-path="url(#s)" class="AU"/><defs><path id="t" d="M160.9 114.7h-19.7c-3.1 0-5.7-2.5-5.7-5.7V89.3c0-3.1 2.5-5.7 5.7-5.7h19.7c3.1 0 5.7 2.5 5.7 5.7V109c0 3.2-2.6 5.7-5.7 5.7z"/></defs><clipPath id="u"><use xlink:href="#t"/></clipPath><g clip-path="url(#u)"><g class="AD"><path d="M134.5 107.8l9.3-10.5 8.6 6.1 9.6-10.8 6.3 4.7v20.2H132z"/><circle cx="150.2" cy="92.6" r="3.9"/></g><defs><path id="v" d="M134.5 107.8l9.3-10.5 8.6 6.1 9.6-10.8 6.3 4.7v20.2H132z"/></defs><clipPath id="w"><use xlink:href="#v"/></clipPath><linearGradient id="x" gradientUnits="userSpaceOnUse" x1="100.746" y1="111.114" x2="192.61" y2="111.114"><stop offset="0" stop-color="#fff"/><stop offset=".997" stop-color="#b9d1f6"/></linearGradient><use xlink:href="#J" clip-path="url(#w)" fill="url(#x)" class="AI"/></g><path d="M173.9 302.5h-32.4a6.02 6.02 0 0 1-6-6v-36.9a6.02 6.02 0 0 1 6-6h32.4a6.02 6.02 0 0 1 6 6v36.9c0 3.4-2.7 6-6 6z" class="AK"/><path d="M215.4 302.5h-22.6c-3 0-5.4-2.4-5.4-5.4V259c0-3 2.4-5.4 5.4-5.4h22.6c3 0 5.4 2.4 5.4 5.4v38.1c0 3-2.4 5.4-5.4 5.4z" class="AN"/><defs><path id="y" d="M173.9 302.5h-32.4a6.02 6.02 0 0 1-6-6v-36.9a6.02 6.02 0 0 1 6-6h32.4a6.02 6.02 0 0 1 6 6v36.9c0 3.4-2.7 6-6 6z"/></defs><clipPath id="z"><use xlink:href="#y"/></clipPath><path d="M127.7 242.5s2.4 19.4 22.3 25.3c23.7 7 10.1 16.3 27 27.1 34.9 22.4-55.1 9.8-55.1 9.8l5.8-62.2z" clip-path="url(#z)" class="AP"/><path d="M220.8 224v20.2c0 2.4-2 4.4-4.4 4.4h-76.5c-2.4 0-4.4-2-4.4-4.4v-5.7c0-2.4 2-4.4 4.4-4.4h28.5c2.4 0 4.4-2 4.4-4.4V224c0-2.4 2-4.4 4.4-4.4h39.3c2.4 0 4.3 2 4.3 4.4z" class="AD"/><defs><path id="AA" d="M220.8 224v20.2c0 2.4-2 4.4-4.4 4.4h-76.5c-2.4 0-4.4-2-4.4-4.4v-5.7c0-2.4 2-4.4 4.4-4.4h28.5c2.4 0 4.4-2 4.4-4.4V224c0-2.4 2-4.4 4.4-4.4h39.3c2.4 0 4.3 2 4.3 4.4z"/></defs><clipPath id="AB"><use xlink:href="#AA"/></clipPath><linearGradient id="AC" gradientUnits="userSpaceOnUse" x1="224.421" y1="216.697" x2="152.245" y2="258.125"><stop offset="0" stop-color="#fff"/><stop offset=".997" stop-color="#b9d1f6"/></linearGradient><use xlink:href="#K" clip-path="url(#AB)" fill="url(#AC)" class="AI"/><path d="M205.9 242.1h-18.5c-4.7 0-8.5-3.8-8.5-8.5h0c0-4.7 3.8-8.5 8.5-8.5h18.5c4.7 0 8.5 3.8 8.5 8.5h0c0 4.7-3.8 8.5-8.5 8.5z" class="AK"/><defs><path id="AD" d="M205.9 242.1h-18.5c-4.7 0-8.5-3.8-8.5-8.5h0c0-4.7 3.8-8.5 8.5-8.5h18.5c4.7 0 8.5 3.8 8.5 8.5h0c0 4.7-3.8 8.5-8.5 8.5z"/></defs><clipPath id="AE"><use xlink:href="#AD"/></clipPath><use xlink:href="#K" clip-path="url(#AE)" class="AP"/><g class="AE AF AG AH AL AM"><path d="M143.8 260h27.8m-27.8 4.6h23m-23 9.3h10.6m-10.6-4.6h27.8"/></g><defs><path id="AF" d="M215.4 302.5h-22.6c-3 0-5.4-2.4-5.4-5.4V259c0-3 2.4-5.4 5.4-5.4h22.6c3 0 5.4 2.4 5.4 5.4v38.1c0 3-2.4 5.4-5.4 5.4z"/></defs><clipPath id="AG"><use xlink:href="#AF"/></clipPath><use xlink:href="#K" clip-path="url(#AG)" class="AU"/><g class="AE AF AG AH AL AM"><path d="M190.3 260.3H218m-27.7 4.7h20.1m-20.1 9.3h6.9m-6.9-4.6H218m-27.7 10.2H218m-27.7 4.7h20.1m-20.1 9.3h6.9m-6.9-4.7H218m-74.2-7h27.8m-27.8 4.7h27.8m-27.8 9.3H168m-24.2-4.6h27.8"/></g><path d="M215.3 214.6h-36.9a5.59 5.59 0 0 1-5.6-5.6v-6.7a5.59 5.59 0 0 1 5.6-5.6h36.9a5.59 5.59 0 0 1 5.6 5.6v6.7c-.1 3.1-2.6 5.6-5.6 5.6z" class="AD"/><defs><path id="AH" d="M215.3 214.6h-36.9a5.59 5.59 0 0 1-5.6-5.6v-6.7a5.59 5.59 0 0 1 5.6-5.6h36.9a5.59 5.59 0 0 1 5.6 5.6v6.7c-.1 3.1-2.6 5.6-5.6 5.6z"/></defs><clipPath id="AI"><use xlink:href="#AH"/></clipPath><linearGradient id="AJ" gradientUnits="userSpaceOnUse" x1="150.776" y1="210.297" x2="224.198" y2="210.297"><stop offset="0" stop-color="#fff"/><stop offset=".997" stop-color="#b9d1f6"/></linearGradient><path d="M150.8 186.7s10.6 16.4 31.1 13.1c24.4-3.9 16.7 7.6 36.1 12.7 28.7 7.6-50.8 21.5-50.8 21.5l-16.4-47.3z" clip-path="url(#AI)" fill="url(#AJ)" class="AI"/><g class="AE AF AG AH AL AM"><path d="M184.4 200.9h30.5m-36.2 3.2h36.2m-36.2 3.1h36.2m-36.2 3.2h18.5"/></g><path d="M160.9 227.8h-19.7c-3.1 0-5.7-2.5-5.7-5.7v-19.7c0-3.1 2.5-5.7 5.7-5.7h19.7c3.1 0 5.7 2.5 5.7 5.7v19.7c0 3.2-2.6 5.7-5.7 5.7z" class="AO"/><defs><path id="AK" d="M160.9 227.8h-19.7c-3.1 0-5.7-2.5-5.7-5.7v-19.7c0-3.1 2.5-5.7 5.7-5.7h19.7c3.1 0 5.7 2.5 5.7 5.7v19.7c0 3.2-2.6 5.7-5.7 5.7z"/></defs><clipPath id="AL"><use xlink:href="#AK"/></clipPath><use xlink:href="#L" clip-path="url(#AL)" fill="#b1000e"/><defs><path id="AM" d="M160.9 227.8h-19.7c-3.1 0-5.7-2.5-5.7-5.7v-19.7c0-3.1 2.5-5.7 5.7-5.7h19.7c3.1 0 5.7 2.5 5.7 5.7v19.7c0 3.2-2.6 5.7-5.7 5.7z"/></defs><clipPath id="AN"><use xlink:href="#AM"/></clipPath><g clip-path="url(#AN)"><g class="AD"><path d="M134.5 220.9l9.3-10.5 8.6 6.1 9.6-10.8 6.3 4.7v20.1H132z"/><circle cx="150.2" cy="205.7" r="3.9"/></g><defs><path id="AO" d="M134.5 220.9l9.3-10.5 8.6 6.1 9.6-10.8 6.3 4.7v20.1H132z"/></defs><clipPath id="AP"><use xlink:href="#AO"/></clipPath><linearGradient id="AQ" gradientUnits="userSpaceOnUse" x1="100.746" y1="224.205" x2="192.61" y2="224.205"><stop offset="0" stop-color="#fff"/><stop offset=".997" stop-color="#b9d1f6"/></linearGradient><use xlink:href="#L" clip-path="url(#AP)" fill="url(#AQ)" class="AI"/></g></g><defs><path id="AR" d="M210.8 272.6h-64.7c-9.4 0-17.1-7.7-17.1-17.1V74.8c0-9.4 7.7-17.1 17.1-17.1h64.7c9.4 0 17.1 7.7 17.1 17.1v180.7c0 9.5-7.7 17.1-17.1 17.1z"/></defs><clipPath id="AS"><use xlink:href="#AR"/></clipPath><linearGradient id="AT" gradientUnits="userSpaceOnUse" x1="192.136" y1="136.966" x2="132.314" y2="222.002"><stop offset="0" stop-color="#fff"/><stop offset=".361" stop-color="#e6effc"/><stop offset=".997" stop-color="#b9d1f6"/></linearGradient><use xlink:href="#F" opacity=".25" clip-path="url(#AS)" fill="url(#AT)"/><path d="M123.6 118h1.1v16.1h-1.1zm-.1-20.5h2.2v16.4h-2.2zm-.2-16.3h1.9v9.1h-1.9zm108.8 21.7h2.5v26.7h-2.5zM193.9 65h-31.1a12.08 12.08 0 0 1-12.1-12.1H206A12.08 12.08 0 0 1 193.9 65z" class="AJ"/><g class="AK"><path d="M183.5 60.6h-10.8c-.5 0-.9-.4-.9-.9h0c0-.5.4-.9.9-.9h10.8c.5 0 .9.4.9.9h0c0 .5-.4.9-.9.9z"/><circle cx="190.3" cy="59.3" r="1.1"/><path d="M199.6 60.2c0 1.3-1.1 2.4-2.4 2.4s-2.4-1.1-2.4-2.4 1.1-2.4 2.4-2.4 2.4 1.1 2.4 2.4zm-30.8.2c0 .7-.6 1.2-1.2 1.2-.7 0-1.2-.6-1.2-1.2 0-.7.6-1.2 1.2-1.2.7-.1 1.2.5 1.2 1.2zm-6.3.1a2.3 2.3 0 1 1-4.6 0 2.3 2.3 0 1 1 4.6 0z"/></g><linearGradient id="AU" gradientUnits="userSpaceOnUse" x1="232.261" y1="72.999" x2="234.069" y2="72.999"><stop offset="0" stop-color="#fff"/><stop offset=".01" stop-color="#fdfdff"/><stop offset=".132" stop-color="#e4edfc"/><stop offset=".268" stop-color="#d1e1f9"/><stop offset=".426" stop-color="#c3d8f7"/><stop offset=".626" stop-color="#bbd3f6"/><stop offset=".997" stop-color="#b9d1f6"/></linearGradient><path d="M234.1 72.2h-1.8v1.5h1.7c0 .1 0-1.6.1-1.5z" fill="url(#AU)"/><linearGradient id="AV" gradientUnits="userSpaceOnUse" x1="124.051" y1="73.033" x2="125.858" y2="73.033"><stop offset="0" stop-color="#fff"/><stop offset=".01" stop-color="#fdfdff"/><stop offset=".132" stop-color="#e4edfc"/><stop offset=".268" stop-color="#d1e1f9"/><stop offset=".426" stop-color="#c3d8f7"/><stop offset=".626" stop-color="#bbd3f6"/><stop offset=".997" stop-color="#b9d1f6"/></linearGradient><path d="M124.2 72.3h1.7v1.4h-1.8c0 .1.1-1.7.1-1.4z" fill="url(#AV)"/><path d="M124.4 254h1.8v2h-1.8s-.2-2 0-2zm107.5-.3v2.2h1.9v-2.3s-1.9-.2-1.9.1z" class="AD"/><path d="M196.4 266.9h-33.7a.47.47 0 0 1-.5-.5h0a.47.47 0 0 1 .5-.5h33.7a.47.47 0 0 1 .5.5h0a.47.47 0 0 1-.5.5z" class="AJ"/><path d="M130.7 186.8h-38c-2.1 0-3.7-1.7-3.7-3.7v-39.5c0-2.1 1.7-3.7 3.7-3.7h38c2.1 0 3.7 1.7 3.7 3.7V183c.1 2.1-1.6 3.8-3.7 3.8z" class="AT"/><path d="M125.1 155h0c.9-.7 1-1.9.3-2.8-.8-.9-1.6-1.8-2.6-2.6-.9-.7-2.1-.6-2.8.3h0c-.6.7-1.6 1-2.4.6-.3-.2-.7-.3-1-.4-.9-.3-1.4-1.2-1.3-2.1h0c.2-1.1-.6-2.1-1.7-2.2-.6-.1-1.2-.1-1.8-.1s-1.2 0-1.8.1c-1.1.1-1.9 1.1-1.7 2.2h0c.1.9-.4 1.8-1.3 2.1-.4.1-.7.3-1 .4-.8.4-1.8.2-2.4-.6h0c-.7-.9-1.9-1-2.8-.3-.9.8-1.8 1.6-2.6 2.6-.7.9-.6 2.1.3 2.8h0c.7.6 1 1.6.6 2.4-.2.3-.3.7-.4 1-.3.9-1.2 1.4-2.1 1.3h0c-1.1-.2-2.1.6-2.2 1.7-.1.6-.1 1.2-.1 1.8s0 1.2.1 1.8c.1 1.1 1.1 1.9 2.2 1.7h0c.9-.1 1.8.4 2.1 1.3.1.4.3.7.4 1 .4.8.2 1.8-.6 2.4h0c-.9.7-1 1.9-.3 2.8.8.9 1.6 1.8 2.6 2.6.9.7 2.1.6 2.8-.3h0c.6-.7 1.6-1 2.4-.6.3.2.7.3 1 .4.9.3 1.4 1.2 1.3 2.1h0c-.2 1.1.6 2.1 1.7 2.2.6.1 1.2.1 1.8.1s1.2 0 1.8-.1c1.1-.1 1.9-1.1 1.7-2.2h0c-.1-.9.4-1.8 1.3-2.1.4-.1.7-.3 1-.4.8-.4 1.8-.2 2.4.6h0c.7.9 1.9 1 2.8.3.9-.8 1.8-1.6 2.6-2.6.7-.9.6-2.1-.3-2.8h0c-.7-.6-1-1.6-.6-2.4.2-.3.3-.7.4-1 .3-.9 1.2-1.4 2.1-1.3h0c1.1.2 2.1-.6 2.2-1.7.1-.6.1-1.2.1-1.8s0-1.2-.1-1.8c-.1-1.1-1.1-1.9-2.2-1.7h0c-.9.1-1.8-.4-2.1-1.3-.1-.4-.3-.7-.4-1-.4-.9-.1-1.9.6-2.4zm-11.9 16.8c-5.9 1-10.9-4.1-10-10a8.72 8.72 0 0 1 7.1-7.1c5.9-1 10.9 4.1 10 10-.7 3.6-3.6 6.5-7.1 7.1z" class="AD"/><g class="AF AG AH AR"><path d="M113.7 175c-8.1 1.3-15-5.6-13.7-13.7.8-4.9 4.8-8.9 9.7-9.7 8.1-1.3 15 5.6 13.7 13.7-.8 4.9-4.8 8.9-9.7 9.7z" stroke-width=".739"/><path d="M107.6 163.2c0-2.3 1.8-4.1 4.1-4.1.3 0 .6 0 1 .1" class="AE AV"/></g><path d="M112.1 158.2v1.8c0 .2.2.3.4.2l1.1-.9c.1-.1.1-.3 0-.4l-1.1-.9c-.1-.1-.4 0-.4.2z" class="AS"/><path d="M115.8 163.2c0 2.3-1.8 4.1-4.1 4.1h-.5" class="AE AF AG AH AR AV"/><path d="M111.5 166.1l-1.2.9c-.2.1-.2.3 0 .5l1.2 1.1c.2.2.5 0 .5-.2v-2c0-.4-.3-.5-.5-.3z" class="AS"/><path d="M286.7 99.1h-76.6c-4.4 0-8 3.6-8 8v80.7c0 4.6 3.8 8.4 8.4 8.4h75.8c4.6 0 8.4-3.8 8.4-8.4v-80.7c0-4.4-3.5-8-8-8z" class="AJ"/><defs><path id="AW" d="M284.9 99.1h-73a9.82 9.82 0 0 0-9.8 9.8v79.4a7.92 7.92 0 0 0 7.9 7.9h76.9a7.92 7.92 0 0 0 7.9-7.9v-79.4c-.1-5.4-4.4-9.8-9.9-9.8z"/></defs><clipPath id="AX"><use xlink:href="#AW"/></clipPath><use xlink:href="#M" clip-path="url(#AX)" class="AS"/><path d="M211.2 152h10.9v27.8h-10.9zm15.9-9.6H238v37.4h-10.9zm15.9-8.3h10.9v45.7H243zm15.9-9.8h10.9v55.6h-10.9zm15.9-8.9h10.9v64.5h-10.9z" class="AD"/><defs><path id="AY" d="M211.2 152h10.9v27.8h-10.9z"/></defs><clipPath id="AZ"><use xlink:href="#AY"/></clipPath><linearGradient id="Aa" gradientUnits="userSpaceOnUse" x1="154.219" y1="209.167" x2="307.869" y2="209.167"><stop offset="0" stop-color="#fff"/><stop offset=".01" stop-color="#fdfdff"/><stop offset=".132" stop-color="#e4edfc"/><stop offset=".268" stop-color="#d1e1f9"/><stop offset=".426" stop-color="#c3d8f7"/><stop offset=".626" stop-color="#bbd3f6"/><stop offset=".997" stop-color="#b9d1f6"/></linearGradient><use xlink:href="#M" clip-path="url(#AZ)" fill="url(#Aa)" class="AQ"/><defs><path id="Ab" d="M227.1 142.4H238v37.4h-10.9z"/></defs><clipPath id="Ac"><use xlink:href="#Ab"/></clipPath><use xlink:href="#M" clip-path="url(#Ac)" fill="url(#Aa)" class="AQ"/><defs><path id="Ad" d="M243 134.1h10.9v45.7H243z"/></defs><clipPath id="Ae"><use xlink:href="#Ad"/></clipPath><use xlink:href="#M" clip-path="url(#Ae)" fill="url(#Aa)" class="AQ"/><defs><path id="Af" d="M258.9 124.3h10.9v55.6h-10.9z"/></defs><clipPath id="Ag"><use xlink:href="#Af"/></clipPath><use xlink:href="#M" clip-path="url(#Ag)" fill="url(#Aa)" class="AQ"/><defs><path id="Ah" d="M274.8 115.4h10.9v64.5h-10.9z"/></defs><clipPath id="Ai"><use xlink:href="#Ah"/></clipPath><use xlink:href="#M" clip-path="url(#Ai)" fill="url(#Aa)" class="AQ"/><path d="M200.9 48.1h49.9a3.12 3.12 0 0 0 3.1-3.1V18.4a3.12 3.12 0 0 0-3.1-3.1h-49.9a3.12 3.12 0 0 0-3.1 3.1V45a3.12 3.12 0 0 0 3.1 3.1z" class="AT"/><defs><path id="Aj" d="M200.9 48.1h49.9a3.12 3.12 0 0 0 3.1-3.1V18.4a3.12 3.12 0 0 0-3.1-3.1h-49.9a3.12 3.12 0 0 0-3.1 3.1V45a3.12 3.12 0 0 0 3.1 3.1z"/></defs><clipPath id="Ak"><use xlink:href="#Aj"/></clipPath><linearGradient id="Al" gradientUnits="userSpaceOnUse" x1="218.091" y1="37.674" x2="225.676" y2="48.104"><stop offset="0" stop-color="#fff"/><stop offset=".997" stop-color="#b9d1f6"/></linearGradient><path d="M194 19.1s5.5 11.7 33.3 12.1 8.8 14.5 30.5 17.5-56.8 3-56.8 3L188 44l6-24.9z" opacity=".23" clip-path="url(#Ak)" fill="url(#Al)"/><path d="M197.8 28.7l6.2-7.3 8.8 5.6 6.7 10.4 8-8.7 7.7 13.5 7.9-15.2 10.8 9.5" stroke-width=".333" class="AE AF AG AH AR"/><circle cx="219.5" cy="37.4" r="2.8" class="AJ"/><circle cx="227.5" cy="29" r="2.8" class="AD"/><circle cx="235.2" cy="42.2" r="2.8" class="AO"/><circle cx="242.9" cy="27" r="2.8" class="AJ"/><circle cx="212.8" cy="27" r="2.8" class="AO"/><circle cx="204.2" cy="21.7" r="2.8" class="AD"/><circle cx="123.9" cy="98.9" r="22.5" class="AO"/><defs><circle id="Am" cx="123.9" cy="98.9" r="22.5"/></defs><clipPath id="An"><use xlink:href="#Am"/></clipPath><path d="M81 67.9s5.7 19.9 34.9 20.7c29.1.8 9.2 24.8 31.9 29.9s-59.5 5-59.5 5l-13.6-13.1L81 67.9z" clip-path="url(#An)" fill="#b1000e"/><path d="M138.8 98.9c0 8.3-6.7 14.9-14.9 14.9S109 107.1 109 98.9c0-8.3 6.7-14.9 14.9-14.9a14.85 14.85 0 0 1 14.3 10.7c.4 1.3.6 2.7.6 4.2z" class="AD"/><defs><path id="Ao" d="M138.8 98.9c0 8.3-6.7 14.9-14.9 14.9S109 107.1 109 98.9c0-8.3 6.7-14.9 14.9-14.9a14.85 14.85 0 0 1 14.3 10.7c.4 1.3.6 2.7.6 4.2z"/></defs><clipPath id="Ap"><use xlink:href="#Ao"/></clipPath><linearGradient id="Aq" gradientUnits="userSpaceOnUse" x1="62.197" y1="94.915" x2="158.767" y2="94.915"><stop offset="0" stop-color="#fff"/><stop offset=".997" stop-color="#b9d1f6"/></linearGradient><use xlink:href="#N" clip-path="url(#Ap)" fill="url(#Aq)" class="AI"/><path d="M138.2 94.6l-14.3 4.2V84c6.8 0 12.5 4.5 14.3 10.6z" class="AK"/><defs><path id="Ar" d="M138.2 94.6l-14.3 4.2V84c6.8 0 12.5 4.5 14.3 10.6z"/></defs><clipPath id="As"><use xlink:href="#Ar"/></clipPath><use xlink:href="#N" clip-path="url(#As)" class="AP"/></svg>